PathFileType	4	(X/Y/Z)	Patient4_TMGait_0pt2_02_right_15.trc.trc
DataRate	CameraRate	NumFrames	NumMarkers	Units	OrigDataRate	OrigDataStartFrame	OrigNumFrames
43.343653250774	43.343653250774	4	33	mm	43.343653250774	36	       141
Frame#	Time	R.Midfoot.Superior			Sacral			L.Shoulder			Chest			R.Shoulder			Neck			R.ASIS			L.ASIS			R.Thigh.Superior			R.Thigh.Lateral			R.Thigh.Inferior			R.Patella			L.Thigh.Superior			L.Thigh.Lateral			L.Thigh.Inferior			L.Patella			L.Shank.Superior			L.Shank.Lateral			L.Shank.Inferior			R.Shank.Superior			R.Shank.Lateral			R.Shank.Inferior			R.Heel			R.Midfoot.Lateral			R.Toe			L.Heel			L.Midfoot.Lateral			L.Midfoot.Superior			L.Toe			L.Elbow			L.Wrist			R.Elbow			R.Wrist			
		X1	Y1	Z1	X2	Y2	Z2	X3	Y3	Z3	X4	Y4	Z4	X5	Y5	Z5	X6	Y6	Z6	X7	Y7	Z7	X8	Y8	Z8	X9	Y9	Z9	X10	Y10	Z10	X11	Y11	Z11	X12	Y12	Z12	X13	Y13	Z13	X14	Y14	Z14	X15	Y15	Z15	X16	Y16	Z16	X17	Y17	Z17	X18	Y18	Z18	X19	Y19	Z19	X20	Y20	Z20	X21	Y21	Z21	X22	Y22	Z22	X23	Y23	Z23	X24	Y24	Z24	X25	Y25	Z25	X26	Y26	Z26	X27	Y27	Z27	X28	Y28	Z28	X29	Y29	Z29	X30	Y30	Z30	X31	Y31	Z31	X32	Y32	Z32	X33	Y33	Z33	

36	34.027500000000	1118.696145052155	97.880300811487	607.336440386246	834.713082049897	1009.903785767349	475.335696118728	1060.364450129400	1429.742681897694	311.670304224442	1129.485131572467	1360.830842628292	488.068728747015	1025.391809340016	1447.767814124686	642.198674546313	1012.806715968651	1493.687011249757	463.494185383980	1049.279097215440	942.197929508322	617.434787730750	1064.039989129841	956.705720330934	343.145793559074	1103.828459306030	747.915756550548	585.186371322655	1033.185928990985	633.795506318823	648.290131056601	1113.160321000067	585.937594119782	567.310521850513	1122.343099894988	499.588244014775	576.215190906344	1060.871989789128	727.337350135413	362.719419698669	949.182890829930	632.208629056302	289.100590355672	1012.070132367447	537.499026111943	348.848834252590	997.049620941962	467.595776493702	351.807672021331	951.827438602393	406.005471590491	340.017423528728	835.589019967505	319.156725491349	286.657406305476	861.890271749540	192.880564137733	345.173205634807	1098.557696648432	409.298371736101	587.542467054091	1036.446530628460	306.261311545722	660.185794619820	1076.539770070939	209.610927518913	598.148965155870	945.563102001305	43.652944834970	589.254346644297	1036.060466648039	37.180845186979	654.640250965498	1241.472458557254	47.551965447250	623.562990215492	707.227981344314	55.015078106972	381.532869057761	779.246066849485	44.389595422146	300.635801709934	868.376265634808	98.763585378420	324.660652325971	990.443728237790	37.833169716896	292.220719690870	1183.094316344098	1137.046163903513	148.916684092105	1440.039333471552	1175.904977465232	148.108531516519	851.582753325388	1151.675281635464	744.646088919048	809.005126532413	891.081237144311	745.091025025586	
37	34.050571428571	1114.187608180971	97.793033545717	607.462082620654	836.292434490766	1010.440433629268	483.151054556020	1060.490874642688	1429.893278988387	316.297923957586	1131.225716993515	1361.410940257073	492.141845932279	1028.346294072343	1448.541229258458	647.093650944301	1014.471284652442	1494.166771720795	468.277172332700	1052.006060667495	942.859296813749	623.496017080302	1064.519142350775	956.981854753725	349.064885874723	1105.114825038541	747.776672891823	590.078605637253	1033.868534780263	633.612027059548	652.773169668662	1113.021983885514	585.587399439566	571.158882263116	1121.675416019984	498.923163674653	579.310441133801	1061.310601922342	727.705337232418	367.106088145215	949.037805610914	633.186989086208	293.385535453272	1012.966681663013	537.728804814264	351.385873263272	998.091158444631	467.281446156210	353.404572289959	951.616406033371	406.483497564989	341.687089789562	833.819773347445	321.470044515021	288.612927741220	859.452950387224	194.189771458096	345.398850877179	1097.030405423593	408.787634277600	589.936965708209	1034.308318664078	305.677525808021	661.824036927387	1073.251270864633	209.238024791952	599.012492634009	941.049665545127	43.677736132977	589.313747861328	1031.538378461951	37.178233963182	654.691029214245	1236.979921114705	47.351640285460	623.666060223071	703.208165687246	57.797861196656	381.316427369605	775.132261970943	45.688606434550	300.518673378259	865.113741302470	99.177052828574	324.152219026646	986.259205982020	37.719080067455	292.159484054294	1174.938499388310	1131.545409269828	154.873688856204	1433.778162636233	1159.114183282051	152.672132734018	856.119630770410	1152.269653033672	752.613321977499	814.794318997146	891.502160830844	754.449569891789	
38	34.073642857143	1109.628109363745	97.688359908080	607.552797902090	837.801901721123	1010.823091453989	490.862137800007	1060.256206313589	1429.987638067454	320.848793531963	1132.694478803886	1361.977564964635	496.110942945952	1030.941204561699	1449.132479515652	651.906429530925	1015.862930698760	1494.566235542122	472.989836179750	1054.692407716466	943.378564271151	629.410108177817	1064.960548723922	957.300768624828	354.887070277631	1106.469651446744	747.546012914997	594.834115068727	1034.582247183875	633.328382693498	657.106224947622	1112.952696933823	585.176082486651	574.902373729834	1121.049721484189	498.187501526339	582.333530808411	1062.400149813817	728.184324039170	371.508390885393	949.970394518120	633.932127544598	297.626356020882	1015.219048116100	537.907030526319	353.945192978202	1000.612355433813	466.724024849795	354.856811182680	952.634244839584	406.767071092008	343.243179870180	833.125631146740	323.942654848106	290.474989899817	857.657288344678	195.656953536279	345.497235749274	1095.520207861631	408.212491779905	592.273440235281	1032.129113107444	305.064178071199	663.392877403784	1069.932478178111	208.835658814157	599.845670213863	936.456688353472	43.700111917767	589.358595553025	1026.942473872946	37.178966284057	654.724078232587	1232.416997056675	47.117130743192	623.724688774894	699.471161013437	61.349580441760	381.009529577739	771.157405979577	47.405628568857	300.323343916006	862.161135369154	99.663290445494	323.488722591726	982.030130475066	37.607857021342	292.105276370423	1165.478924885424	1125.619152665584	161.190331036696	1425.641804557050	1139.389147128497	157.626863950089	861.019934134908	1152.215287373068	760.657730163526	821.689291784188	891.191699375799	764.105158999138	
39	34.096714285714	1105.029833184128	97.571851725140	607.616678108599	839.205579365299	1011.024935030970	498.467199465572	1059.632010931028	1429.999703214448	325.347276756169	1133.877733610977	1362.484129264769	499.990044788945	1033.192281991871	1449.492214905864	656.666968035590	1016.958622753530	1494.853348082602	477.666993989051	1057.326725657267	943.729955664498	635.149789611090	1065.326365022522	957.640715898438	360.581267601446	1107.912620737802	747.223386158591	599.415050727742	1035.402114730588	632.932411578818	661.262795643749	1113.027674819889	584.702797232353	578.499431181889	1120.565033584098	497.366068253351	585.246480517396	1064.239246377405	728.796772685294	375.930609002039	952.210007462763	634.404870581273	301.786959357146	1019.101484154625	538.060370542044	356.537563523887	1004.896138274670	465.942807290898	356.168008575663	955.163875367326	406.853094085508	344.673261376174	833.780140340906	326.661977423450	292.225325252179	856.682858876698	197.385131155702	345.455973203781	1094.104623382775	407.555152301020	594.525159225892	1029.984862926710	304.417486363011	664.891365359437	1066.624030257648	208.388839402893	600.636373335491	931.801617163225	43.719241004720	589.393610479227	1022.290663255283	37.184808102344	654.752420139664	1227.802576520347	46.862811745524	623.751225990269	696.175188391535	66.011085437351	380.617810315776	767.399163928603	49.800676859254	300.056742528114	859.605239013604	100.309260796078	322.669243916614	977.686018060018	37.463202481569	292.059442693228	1154.841185532552	1119.405017135872	167.920975806824	1415.292350651803	1116.699598981249	163.039338925760	866.482310964780	1151.360339541240	768.776979445355	830.024458277917	890.001391337653	774.050785150367	
